# xmcd
#
# Track frame offsets: 
#        150
#        18450
#        38286
#        61198
#        77585
#        105655
#        123207
#        143274
#        169042
#        188447
#        213286
#        227399
#        248427
#        266159
#        309208
#
# Disc length: 4389 seconds
#
# Revision: 2
# Processed by: cddbd v1.5.2PL0 Copyright (c) Steve Scherf et al.
# Submitted via: ExactAudioCopy v0.99pb5
#
DISCID=a311230f
DTITLE=Various Artist - My Favourites Blues (Blues Rock) vol.4
DYEAR=2001
DGENRE=Blues-Rock
TTITLE0=Rob Tognoni - My Acid Is Kicki' In'
TTITLE1=The Smokin' J's - Winter
TTITLE2=The Maniac Bullfrogs - Time
TTITLE3=Don Croissant - Big Time Woman
TTITLE4=Pecwec Bluesgang - Sweet Blue Aneel
TTITLE5=Horserower - Hooked Om You
TTITLE6=Recydywa - Blues For Annie
TTITLE7=Zz Top - Cover Your Rig
TTITLE8=Tony Galla - Worried Mind Blues
TTITLE9=Amor - Louer Down
TTITLE10=Popa Chubby - Fire
TTITLE11=Jay Gordon - Drippin Blues
TTITLE12=Cole Tate Band - The Day After Tomorrow
TTITLE13=Innes Sibin - Don't Keep Me Haneing On
TTITLE14=Johnny Fuzzy Kruz - The Slave
EXTD=
EXTT0=
EXTT1=
EXTT2=
EXTT3=
EXTT4=
EXTT5=
EXTT6=
EXTT7=
EXTT8=
EXTT9=
EXTT10=
EXTT11=
EXTT12=
EXTT13=
EXTT14=
PLAYORDER=
